<svg xmlns="http://www.w3.org/2000/svg" xmlns:xlink="http://www.w3.org/1999/xlink" xmlns:lucid="lucid" width="1100" height="600"><g transform="translate(-360 -360)" lucid:page-tab-id="0_0"><path d="M1148.8 380c8.84 0 16 7.16 16 16v128c0 8.84-7.16 16-16 16H816c-8.84 0-16-7.16-16-16V396c0-8.84 7.16-16 16-16z" stroke="#000" stroke-width="2" fill="#fff"/><use xlink:href="#a" transform="matrix(1,0,0,1,820,380) translate(76.625 83.60000000000001)"/><use xlink:href="#b" transform="matrix(1,0,0,1,820,380) translate(124.575 83.60000000000001)"/><use xlink:href="#c" transform="matrix(1,0,0,1,820,380) translate(199.47500000000002 83.60000000000001)"/><path d="M1148.8 780c8.84 0 16 7.16 16 16v128c0 8.84-7.16 16-16 16H816c-8.84 0-16-7.16-16-16V796c0-8.84 7.16-16 16-16z" stroke="#000" stroke-width="2" fill="#fff"/><use xlink:href="#d" transform="matrix(1,0,0,1,820,780) translate(1.2249999999999943 72.8)"/><use xlink:href="#e" transform="matrix(1,0,0,1,820,780) translate(55.125 72.8)"/><use xlink:href="#f" transform="matrix(1,0,0,1,820,780) translate(108.125 72.8)"/><use xlink:href="#g" transform="matrix(1,0,0,1,820,780) translate(149.07500000000002 72.8)"/><use xlink:href="#h" transform="matrix(1,0,0,1,820,780) translate(212.925 72.8)"/><use xlink:href="#i" transform="matrix(1,0,0,1,820,780) translate(247.925 72.8)"/><use xlink:href="#j" transform="matrix(1,0,0,1,820,780) translate(302.82500000000005 72.8)"/><use xlink:href="#k" transform="matrix(1,0,0,1,820,780) translate(123.57499999999999 94.4)"/><path d="M570 400c5.52 0 10 4.48 10 10v80c0 5.52-4.48 10-10 10H390c-5.52 0-10-4.48-10-10v-80c0-5.52 4.48-10 10-10z" stroke="#000" stroke-width="2" fill="#fff"/><use xlink:href="#l" transform="matrix(1,0,0,1,400,400) translate(26.449999999999996 53.6)"/><use xlink:href="#m" transform="matrix(1,0,0,1,400,400) translate(95.6 53.6)"/><path d="M582 450h198.5" stroke="#000" stroke-width="2" fill="none"/><path d="M582.03 451H581v-2h1.03z"/><path d="M795.76 450l-14.26 4.64v-9.28z" stroke="#000" stroke-width="2"/><path d="M1118.53 778V559.5" stroke="#000" stroke-width="2" fill="none"/><path d="M1119.53 779h-2v-1.03h2z"/><path d="M1118.53 544.24l4.63 14.26h-9.27z" stroke="#000" stroke-width="2"/><path d="M843.86 542v218.5" stroke="#000" stroke-width="2" fill="none"/><path d="M844.86 542.03h-2V541h2z"/><path d="M843.86 775.76l-4.63-14.26h9.27z" stroke="#000" stroke-width="2"/><path d="M580 630h240v60H580z" stroke="#000" stroke-opacity="0" stroke-width="2" fill="#fff" fill-opacity="0"/><g><use xlink:href="#d" transform="matrix(1,0,0,1,585,635) translate(13.224999999999994 30.025)"/><use xlink:href="#n" transform="matrix(1,0,0,1,585,635) translate(67.125 30.025)"/><use xlink:href="#o" transform="matrix(1,0,0,1,585,635) translate(110.125 30.025)"/></g><path d="M1164.8 630H1440v60h-275.2z" stroke="#000" stroke-opacity="0" stroke-width="2" fill="#fff" fill-opacity="0"/><g><use xlink:href="#d" transform="matrix(1,0,0,1,1169.8000000000466,635) translate(8.799999999999983 30.025)"/><use xlink:href="#p" transform="matrix(1,0,0,1,1169.8000000000466,635) translate(62.69999999999999 30.025)"/><use xlink:href="#q" transform="matrix(1,0,0,1,1169.8000000000466,635) translate(124.6 30.025)"/></g><defs><path d="M30-248c118-7 216 8 213 122C240-48 200 0 122 0H30v-248zM63-27c89 8 146-16 146-99s-60-101-146-95v194" id="r"/><path d="M100-194c63 0 86 42 84 106H49c0 40 14 67 53 68 26 1 43-12 49-29l28 8c-11 28-37 45-77 45C44 4 14-33 15-96c1-61 26-98 85-98zm52 81c6-60-76-77-97-28-3 7-6 17-6 28h103" id="s"/><path d="M115-194c55 1 70 41 70 98S169 2 115 4C84 4 66-9 55-30l1 105H24l-1-265h31l2 30c10-21 28-34 59-34zm-8 174c40 0 45-34 45-75s-6-73-45-74c-42 0-51 32-51 76 0 43 10 73 51 73" id="t"/><g id="a"><use transform="matrix(0.05,0,0,0.05,0,0)" xlink:href="#r"/><use transform="matrix(0.05,0,0,0.05,12.950000000000001,0)" xlink:href="#s"/><use transform="matrix(0.05,0,0,0.05,22.950000000000003,0)" xlink:href="#s"/><use transform="matrix(0.05,0,0,0.05,32.95,0)" xlink:href="#t"/></g><path d="M30 0v-248h33v221h125V0H30" id="u"/><path d="M141-36C126-15 110 5 73 4 37 3 15-17 15-53c-1-64 63-63 125-63 3-35-9-54-41-54-24 1-41 7-42 31l-33-3c5-37 33-52 76-52 45 0 72 20 72 64v82c-1 20 7 32 28 27v20c-31 9-61-2-59-35zM48-53c0 20 12 33 32 33 41-3 63-29 60-74-43 2-92-5-92 41" id="v"/><path d="M114-163C36-179 61-72 57 0H25l-1-190h30c1 12-1 29 2 39 6-27 23-49 58-41v29" id="w"/><path d="M117-194c89-4 53 116 60 194h-32v-121c0-31-8-49-39-48C34-167 62-67 57 0H25l-1-190h30c1 10-1 24 2 32 11-22 29-35 61-36" id="x"/><path d="M24-231v-30h32v30H24zM24 0v-190h32V0H24" id="y"/><path d="M177-190C167-65 218 103 67 71c-23-6-38-20-44-43l32-5c15 47 100 32 89-28v-30C133-14 115 1 83 1 29 1 15-40 15-95c0-56 16-97 71-98 29-1 48 16 59 35 1-10 0-23 2-32h30zM94-22c36 0 50-32 50-73 0-42-14-75-50-75-39 0-46 34-46 75s6 73 46 73" id="z"/><g id="b"><use transform="matrix(0.05,0,0,0.05,0,0)" xlink:href="#u"/><use transform="matrix(0.05,0,0,0.05,10,0)" xlink:href="#s"/><use transform="matrix(0.05,0,0,0.05,20,0)" xlink:href="#v"/><use transform="matrix(0.05,0,0,0.05,30,0)" xlink:href="#w"/><use transform="matrix(0.05,0,0,0.05,35.95,0)" xlink:href="#x"/><use transform="matrix(0.05,0,0,0.05,45.95,0)" xlink:href="#y"/><use transform="matrix(0.05,0,0,0.05,49.900000000000006,0)" xlink:href="#x"/><use transform="matrix(0.05,0,0,0.05,59.900000000000006,0)" xlink:href="#z"/></g><path d="M240 0l2-218c-23 76-54 145-80 218h-23L58-218 59 0H30v-248h44l77 211c21-75 51-140 76-211h43V0h-30" id="A"/><path d="M100-194c62-1 85 37 85 99 1 63-27 99-86 99S16-35 15-95c0-66 28-99 85-99zM99-20c44 1 53-31 53-75 0-43-8-75-51-75s-53 32-53 75 10 74 51 75" id="B"/><path d="M85-194c31 0 48 13 60 33l-1-100h32l1 261h-30c-2-10 0-23-3-31C134-8 116 4 85 4 32 4 16-35 15-94c0-66 23-100 70-100zm9 24c-40 0-46 34-46 75 0 40 6 74 45 74 42 0 51-32 51-76 0-42-9-74-50-73" id="C"/><path d="M24 0v-261h32V0H24" id="D"/><g id="c"><use transform="matrix(0.05,0,0,0.05,0,0)" xlink:href="#A"/><use transform="matrix(0.05,0,0,0.05,14.950000000000001,0)" xlink:href="#B"/><use transform="matrix(0.05,0,0,0.05,24.950000000000003,0)" xlink:href="#C"/><use transform="matrix(0.05,0,0,0.05,34.95,0)" xlink:href="#s"/><use transform="matrix(0.05,0,0,0.05,44.95,0)" xlink:href="#D"/></g><g id="d"><use transform="matrix(0.05,0,0,0.05,0,0)" xlink:href="#A"/><use transform="matrix(0.05,0,0,0.05,14.950000000000001,0)" xlink:href="#B"/><use transform="matrix(0.05,0,0,0.05,24.950000000000003,0)" xlink:href="#C"/><use transform="matrix(0.05,0,0,0.05,34.95,0)" xlink:href="#s"/><use transform="matrix(0.05,0,0,0.05,44.95,0)" xlink:href="#D"/></g><path d="M135-143c-3-34-86-38-87 0 15 53 115 12 119 90S17 21 10-45l28-5c4 36 97 45 98 0-10-56-113-15-118-90-4-57 82-63 122-42 12 7 21 19 24 35" id="E"/><path d="M108 0H70L1-190h34L89-25l56-165h34" id="F"/><g id="e"><use transform="matrix(0.05,0,0,0.05,0,0)" xlink:href="#E"/><use transform="matrix(0.05,0,0,0.05,9,0)" xlink:href="#v"/><use transform="matrix(0.05,0,0,0.05,19,0)" xlink:href="#F"/><use transform="matrix(0.05,0,0,0.05,28,0)" xlink:href="#s"/><use transform="matrix(0.05,0,0,0.05,38,0)" xlink:href="#C"/></g><path d="M101-234c-31-9-42 10-38 44h38v23H63V0H32v-167H5v-23h27c-7-52 17-82 69-68v24" id="G"/><path d="M59-47c-2 24 18 29 38 22v24C64 9 27 4 27-40v-127H5v-23h24l9-43h21v43h35v23H59v120" id="H"/><g id="f"><use transform="matrix(0.05,0,0,0.05,0,0)" xlink:href="#v"/><use transform="matrix(0.05,0,0,0.05,10,0)" xlink:href="#G"/><use transform="matrix(0.05,0,0,0.05,15,0)" xlink:href="#H"/><use transform="matrix(0.05,0,0,0.05,20,0)" xlink:href="#s"/><use transform="matrix(0.05,0,0,0.05,30,0)" xlink:href="#w"/></g><g id="g"><use transform="matrix(0.05,0,0,0.05,0,0)" xlink:href="#H"/><use transform="matrix(0.05,0,0,0.05,5,0)" xlink:href="#w"/><use transform="matrix(0.05,0,0,0.05,10.95,0)" xlink:href="#v"/><use transform="matrix(0.05,0,0,0.05,20.95,0)" xlink:href="#y"/><use transform="matrix(0.05,0,0,0.05,24.9,0)" xlink:href="#x"/><use transform="matrix(0.05,0,0,0.05,34.9,0)" xlink:href="#y"/><use transform="matrix(0.05,0,0,0.05,38.85,0)" xlink:href="#x"/><use transform="matrix(0.05,0,0,0.05,48.85,0)" xlink:href="#z"/></g><g id="h"><use transform="matrix(0.05,0,0,0.05,0,0)" xlink:href="#v"/><use transform="matrix(0.05,0,0,0.05,10,0)" xlink:href="#x"/><use transform="matrix(0.05,0,0,0.05,20,0)" xlink:href="#C"/></g><g id="i"><use transform="matrix(0.05,0,0,0.05,0,0)" xlink:href="#w"/><use transform="matrix(0.05,0,0,0.05,5.95,0)" xlink:href="#s"/><use transform="matrix(0.05,0,0,0.05,15.949999999999998,0)" xlink:href="#D"/><use transform="matrix(0.05,0,0,0.05,19.9,0)" xlink:href="#B"/><use transform="matrix(0.05,0,0,0.05,29.899999999999995,0)" xlink:href="#v"/><use transform="matrix(0.05,0,0,0.05,39.9,0)" xlink:href="#C"/></g><g id="j"><use transform="matrix(0.05,0,0,0.05,0,0)" xlink:href="#G"/><use transform="matrix(0.05,0,0,0.05,5,0)" xlink:href="#B"/><use transform="matrix(0.05,0,0,0.05,15,0)" xlink:href="#w"/></g><path d="M96-169c-40 0-48 33-48 73s9 75 48 75c24 0 41-14 43-38l32 2c-6 37-31 61-74 61-59 0-76-41-82-99-10-93 101-131 147-64 4 7 5 14 7 22l-32 3c-4-21-16-35-41-35" id="I"/><g id="k"><use transform="matrix(0.05,0,0,0.05,0,0)" xlink:href="#t"/><use transform="matrix(0.05,0,0,0.05,10,0)" xlink:href="#w"/><use transform="matrix(0.05,0,0,0.05,15.949999999999998,0)" xlink:href="#s"/><use transform="matrix(0.05,0,0,0.05,25.950000000000003,0)" xlink:href="#C"/><use transform="matrix(0.05,0,0,0.05,35.95,0)" xlink:href="#y"/><use transform="matrix(0.05,0,0,0.05,39.900000000000006,0)" xlink:href="#I"/><use transform="matrix(0.05,0,0,0.05,48.900000000000006,0)" xlink:href="#H"/><use transform="matrix(0.05,0,0,0.05,53.900000000000006,0)" xlink:href="#y"/><use transform="matrix(0.05,0,0,0.05,57.85,0)" xlink:href="#B"/><use transform="matrix(0.05,0,0,0.05,67.85000000000001,0)" xlink:href="#x"/></g><path d="M127-220V0H93v-220H8v-28h204v28h-85" id="J"/><g id="l"><use transform="matrix(0.05,0,0,0.05,0,0)" xlink:href="#J"/><use transform="matrix(0.05,0,0,0.05,10.3,0)" xlink:href="#w"/><use transform="matrix(0.05,0,0,0.05,16.25,0)" xlink:href="#v"/><use transform="matrix(0.05,0,0,0.05,26.25,0)" xlink:href="#y"/><use transform="matrix(0.05,0,0,0.05,30.200000000000003,0)" xlink:href="#x"/><use transform="matrix(0.05,0,0,0.05,40.2,0)" xlink:href="#y"/><use transform="matrix(0.05,0,0,0.05,44.150000000000006,0)" xlink:href="#x"/><use transform="matrix(0.05,0,0,0.05,54.150000000000006,0)" xlink:href="#z"/></g><g id="m"><use transform="matrix(0.05,0,0,0.05,0,0)" xlink:href="#r"/><use transform="matrix(0.05,0,0,0.05,12.950000000000001,0)" xlink:href="#v"/><use transform="matrix(0.05,0,0,0.05,22.950000000000003,0)" xlink:href="#H"/><use transform="matrix(0.05,0,0,0.05,27.950000000000003,0)" xlink:href="#v"/></g><g id="n"><use transform="matrix(0.05,0,0,0.05,0,0)" xlink:href="#E"/><use transform="matrix(0.05,0,0,0.05,9,0)" xlink:href="#v"/><use transform="matrix(0.05,0,0,0.05,19,0)" xlink:href="#F"/><use transform="matrix(0.05,0,0,0.05,28,0)" xlink:href="#s"/></g><path d="M87 75C49 33 22-17 22-94c0-76 28-126 65-167h31c-38 41-64 92-64 168S80 34 118 75H87" id="K"/><path d="M9 0v-24l116-142H16v-24h144v24L44-24h123V0H9" id="L"/><path d="M33-261c38 41 65 92 65 168S71 34 33 75H2C39 34 66-17 66-93S39-220 2-261h31" id="M"/><g id="o"><use transform="matrix(0.05,0,0,0.05,0,0)" xlink:href="#K"/><use transform="matrix(0.05,0,0,0.05,5.95,0)" xlink:href="#E"/><use transform="matrix(0.05,0,0,0.05,14.949999999999998,0)" xlink:href="#s"/><use transform="matrix(0.05,0,0,0.05,24.95,0)" xlink:href="#w"/><use transform="matrix(0.05,0,0,0.05,30.899999999999995,0)" xlink:href="#y"/><use transform="matrix(0.05,0,0,0.05,34.85,0)" xlink:href="#v"/><use transform="matrix(0.05,0,0,0.05,44.85,0)" xlink:href="#D"/><use transform="matrix(0.05,0,0,0.05,48.800000000000004,0)" xlink:href="#y"/><use transform="matrix(0.05,0,0,0.05,52.75,0)" xlink:href="#L"/><use transform="matrix(0.05,0,0,0.05,61.75,0)" xlink:href="#v"/><use transform="matrix(0.05,0,0,0.05,71.75,0)" xlink:href="#H"/><use transform="matrix(0.05,0,0,0.05,76.75,0)" xlink:href="#y"/><use transform="matrix(0.05,0,0,0.05,80.7,0)" xlink:href="#B"/><use transform="matrix(0.05,0,0,0.05,90.7,0)" xlink:href="#x"/><use transform="matrix(0.05,0,0,0.05,100.7,0)" xlink:href="#M"/></g><path d="M233-177c-1 41-23 64-60 70L243 0h-38l-65-103H63V0H30v-248c88 3 205-21 203 71zM63-129c60-2 137 13 137-47 0-61-80-42-137-45v92" id="N"/><g id="p"><use transform="matrix(0.05,0,0,0.05,0,0)" xlink:href="#N"/><use transform="matrix(0.05,0,0,0.05,12.950000000000001,0)" xlink:href="#s"/><use transform="matrix(0.05,0,0,0.05,22.950000000000003,0)" xlink:href="#D"/><use transform="matrix(0.05,0,0,0.05,26.900000000000002,0)" xlink:href="#B"/><use transform="matrix(0.05,0,0,0.05,36.900000000000006,0)" xlink:href="#v"/><use transform="matrix(0.05,0,0,0.05,46.900000000000006,0)" xlink:href="#C"/></g><path d="M16-82v-28h88v28H16" id="O"/><g id="q"><use transform="matrix(0.05,0,0,0.05,0,0)" xlink:href="#K"/><use transform="matrix(0.05,0,0,0.05,5.95,0)" xlink:href="#C"/><use transform="matrix(0.05,0,0,0.05,15.949999999999998,0)" xlink:href="#s"/><use transform="matrix(0.05,0,0,0.05,25.950000000000003,0)" xlink:href="#O"/><use transform="matrix(0.05,0,0,0.05,31.899999999999995,0)" xlink:href="#E"/><use transform="matrix(0.05,0,0,0.05,40.9,0)" xlink:href="#s"/><use transform="matrix(0.05,0,0,0.05,50.9,0)" xlink:href="#w"/><use transform="matrix(0.05,0,0,0.05,56.85,0)" xlink:href="#y"/><use transform="matrix(0.05,0,0,0.05,60.800000000000004,0)" xlink:href="#v"/><use transform="matrix(0.05,0,0,0.05,70.80000000000001,0)" xlink:href="#D"/><use transform="matrix(0.05,0,0,0.05,74.75000000000001,0)" xlink:href="#y"/><use transform="matrix(0.05,0,0,0.05,78.70000000000002,0)" xlink:href="#L"/><use transform="matrix(0.05,0,0,0.05,87.70000000000002,0)" xlink:href="#v"/><use transform="matrix(0.05,0,0,0.05,97.70000000000002,0)" xlink:href="#H"/><use transform="matrix(0.05,0,0,0.05,102.7,0)" xlink:href="#y"/><use transform="matrix(0.05,0,0,0.05,106.65000000000003,0)" xlink:href="#B"/><use transform="matrix(0.05,0,0,0.05,116.65000000000003,0)" xlink:href="#x"/><use transform="matrix(0.05,0,0,0.05,126.65000000000003,0)" xlink:href="#M"/></g></defs></g></svg>